<svg xmlns="http://www.w3.org/2000/svg" style="height:512px;width:512px" viewBox="0 0 512 512"><path fill="#fff" d="M104 37v178c4 10 10 14 21 17s27 3 44 3 34 0 51 4c10 2 19 5 27 11V55c-7-9-16-13-27-15-12-1-28 1-43 3-16 2-32 5-48 3-9-1-17-4-25-9zm304 0c-8 5-16 8-25 9-16 2-32-1-48-3-15-2-31-4-43-3-11 2-20 6-27 15v195c8-5 17-9 27-11 17-4 34-4 51-4s33 0 44-3 17-7 21-17V37zM131 80h89v18h-89V80zm161 0h89v18h-89V80zm-161 45h89v18h-89v-18zm161 0h89v18h-89v-18zm-161 46h89v18h-89v-18zm161 0h89v18h-89v-18zM96 249c-17 0-29 7-38 19-8 11-13 28-13 44s5 33 13 44c9 12 21 19 38 19 22 0 36-7 44-14 9-7 12-13 12-13l2-5h204l2 5s3 6 12 13c8 7 22 14 44 14 17 0 29-7 38-19 8-11 13-28 13-44s-5-33-13-44c-9-12-21-19-38-19-22 0-36 7-44 14-9 7-12 13-12 13l-2 5H154l-2-5s-3-6-12-13c-8-7-22-14-44-14zm5 22h2c14 1 29 9 45 24h216c16-15 31-23 44-24 15-1 27 6 34 16 13 21 7 54-21 72l-10-14c20-14 22-37 15-48-3-6-8-9-16-8s-21 6-36 21l-2 3H140l-2-3c-15-15-28-20-36-21s-13 2-16 8c-7 11-5 34 15 48l-10 15c-28-19-34-52-21-73 6-9 16-15 28-16h3zm68 90v126h30V361h-30zm48 0v126h30V361h-30zm48 0v126h30V361h-30zm48 0v126h30V361h-30z"/></svg>