<svg xmlns="http://www.w3.org/2000/svg" style="height:512px;width:512px" viewBox="0 0 512 512"><path fill="#fff" d="M256 21a189 189 0 0 0-51 7l8 3c10 2 26 4 43 4a189 189 0 0 0 51-7l-8-3c-10-2-26-4-43-4zm-72 12-11 6c-3 2-4 4-4 5s1 3 4 5l18 9c16 5 39 9 65 9s49-4 65-9l18-9c3-2 4-4 4-5s-1-3-4-5l-11-6c-1 4-5 7-8 9-5 3-10 4-17 6-12 3-29 5-47 5s-35-2-47-5c-7-2-12-3-17-6-3-2-7-5-8-9zm164 32c-6 4-13 7-21 10-19 6-44 10-71 10s-52-4-71-10c-8-3-15-6-21-10-25 16-46 39-61 66 3 5 6 11 8 18 5 14 8 31 9 50l20-20h19a105 105 0 0 1 194 0h34v82h-34a105 105 0 0 1-194 0h-19l-20-20c-1 19-4 36-9 50-3 9-7 17-11 23-4 4-8 8-13 10 6 17 15 33 24 47h40v-32h50v32h110v-32h50v32h40c9-14 18-30 24-47-5-2-9-6-13-10-4-6-8-14-11-23-6-19-10-44-10-71s4-52 10-71c2-7 5-13 8-18-15-27-36-50-61-66zM80 133c-1 0-3 1-5 4l-6 11c4 1 7 5 9 8 3 5 4 10 6 17 3 12 5 29 5 47s-2 35-5 47c-2 7-3 12-6 17-2 3-5 7-9 8l6 11c2 3 4 4 5 4s3-1 5-4l9-18c5-16 9-39 9-65s-4-49-9-65l-9-18c-2-3-4-4-5-4zm176 0c-40 0-74 27-84 64h-24l-23 23 23 23h24a87 87 0 0 0 168 0h29v-46h-29a87 87 0 0 0-84-64zm176 0c-1 0-3 1-5 4l-9 18c-5 16-9 39-9 65s4 49 9 65l9 18c2 3 4 4 5 4s3-1 5-4l6-11c-4-1-7-5-9-8-3-5-4-10-6-17-3-12-5-29-5-47s2-35 5-47c2-7 3-12 6-17 2-3 5-7 9-8l-6-11c-2-3-4-4-5-4zm-176 14a73 73 0 0 1 0 146 73 73 0 0 1 0-146zm0 18-8 1 8 7 8-7-8-1zm-192 4-3 8c-2 10-4 26-4 43a189 189 0 0 0 7 51l3-8c2-10 4-26 4-43a189 189 0 0 0-7-51zm384 0-3 8c-2 10-4 26-4 43a189 189 0 0 0 7 51l3-8c2-10 4-26 4-43a189 189 0 0 0-7-51zm-219 3c-9 5-16 12-21 21l14 14 21-21-14-14zm54 0-14 14 21 21 14-14c-5-9-12-16-21-21zm-27 27-21 21 21 21 21-21-21-21zm-54 13-1 8 1 8 7-8-7-8zm108 0-7 8 7 8 1-8-1-8zm-88 21-14 14c5 9 12 16 21 21l14-14-21-21zm68 0-21 21 14 14c9-5 16-12 21-21l-14-14zm-34 34-8 7 8 1 8-1-8-7zm-87 90v14h14v-14h-14zm160 0v14h14v-14h-14zm-208 32v30h270v-30H121zm-94 48c3 5 7 10 15 15 11 8 29 15 51 21 44 12 104 18 163 18s119-6 163-18c22-6 40-13 51-21 8-5 12-10 15-15H27z"/></svg>