<svg xmlns="http://www.w3.org/2000/svg" viewBox="0 0 512 512"><path fill="#fff" d="m169 32-33 32 22 22 32-33zm34 34-10 10 123 123 10-10zm159 18h-11c-32 2-56 12-78 27l65 65 66 123-123-65-16-15v140c24-14 50-27 84-31 37-4 83 4 144 33V118c-52-23-93-33-127-34h-4zm-231 1c-31 3-68 13-112 33v243c61-29 107-37 144-33 33 5 58 16 84 31V201L131 85zm49 3-10 10 123 123 10-10zm156 116-27 28 55 27zM144 346c-32 0-72 9-125 36v42c61-29 107-37 144-33 19 2 35 7 50 13l-14 22h117l-17-22c15-6 31-11 50-13 37-4 83 4 144 33v-42c-53-27-93-36-125-36h-3l-14 1c-34 3-60 18-86 34-5-1-13-2-18-1-27-16-58-30-86-33l-17-1z"/></svg>