<svg xmlns="http://www.w3.org/2000/svg" width="24" height="24"><path d="M20.68 18.05c-.22-.58-.18-1.23.12-1.84.79-1.65 1.1-3.5.89-5.35-.52-4.55-4.21-8.15-8.77-8.57A9.78 9.78 0 0 0 5.11 5.1a9.745 9.745 0 0 0-2.81 7.81c.42 4.56 4.02 8.25 8.57 8.77.38.04.76.06 1.14.06 1.46 0 2.9-.32 4.21-.95.61-.29 1.26-.33 1.84-.12l1.65.62c.47.17.97.07 1.33-.28.35-.35.46-.86.28-1.33l-.64-1.63Zm-1.24-2.49c-.47.98-.53 2.06-.17 3.02l.43 1.13-1.13-.43c-.96-.37-2.04-.31-3.02.16-1.4.67-2.96.93-4.53.75-3.78-.43-6.9-3.62-7.24-7.42-.23-2.46.64-4.87 2.38-6.61a8.24 8.24 0 0 1 5.85-2.42c.25 0 .51 0 .77.04 3.8.35 6.99 3.46 7.42 7.24a8.26 8.26 0 0 1-.75 4.53h-.01Z"/><path d="M16 9.25H8c-.41 0-.75.34-.75.75s.34.75.75.75h8c.41 0 .75-.34.75-.75s-.34-.75-.75-.75Zm0 4H8c-.41 0-.75.34-.75.75s.34.75.75.75h8c.41 0 .75-.34.75-.75s-.34-.75-.75-.75Z"/></svg>