<svg xmlns="http://www.w3.org/2000/svg" width="61" height="43" viewBox="378.95 68.58 1142.9 726.85"><g fill="#ed1c24"><path d="M1518.94 422.93c-2.58-3.61-64.46-89.47-165.29-176.64-59.41-51.36-119.98-92.33-180.02-121.77-75.7-37.12-150.81-55.94-223.23-55.94S802.87 87.4 727.17 124.52c-60.04 29.44-120.6 70.41-180.02 121.77-100.83 87.17-162.71 173.03-165.29 176.64a15.605 15.605 0 0 0 0 18.15c2.58 3.61 64.46 89.47 165.29 176.64 59.41 51.36 119.98 92.33 180.02 121.77 75.7 37.12 150.81 55.94 223.23 55.94s147.53-18.82 223.23-55.94c60.04-29.44 120.6-70.41 180.02-121.77 100.83-87.17 162.71-173.03 165.29-176.64a15.605 15.605 0 0 0 0-18.15ZM950.4 644.89c-117.39 0-212.89-95.5-212.89-212.89s95.5-212.89 212.89-212.89 212.89 95.5 212.89 212.89-95.5 212.89-212.89 212.89Z"/><path d="M950.4 337.76c-51.97 0-94.24 42.28-94.24 94.24s42.28 94.24 94.24 94.24 94.24-42.28 94.24-94.24-42.28-94.24-94.24-94.24Z"/></g><path fill="#ed1c24" d="m430.146 673.795 989.78-571.45 50.73 87.866-989.78 571.45z"/></svg>