<!DOCTYPE svg PUBLIC "-//W3C//DTD SVG 1.1//EN" "http://www.w3.org/Graphics/SVG/1.1/DTD/svg11.dtd">
<!-- Uploaded to: SVG Repo, www.svgrepo.com, Transformed by: SVG Repo Mixer Tools -->
<svg fill="#ffffff" version="1.1" id="Capa_1" xmlns="http://www.w3.org/2000/svg" xmlns:xlink="http://www.w3.org/1999/xlink" width="800px" height="800px" viewBox="0 0 117.982 117.982" xml:space="preserve">
<g id="SVGRepo_bgCarrier" stroke-width="0"/>
<g id="SVGRepo_tracerCarrier" stroke-linecap="round" stroke-linejoin="round"/>
<g id="SVGRepo_iconCarrier"> <g> <g> <circle cx="62.094" cy="89.481" r="8.678"/> <path d="M50.028,95.771l3.646-8.72c0.044-0.104,0.085-0.22,0.12-0.332c0.174-0.562,0.202-1.13,0.114-1.673 c0.12-0.92,0.088-1.875-0.136-2.831c-1.001-4.279-5.279-6.938-9.559-5.938l-17.432,4.074c-0.399,0.094-0.78,0.225-1.15,0.373 c-1.725-0.156-3.414,0.832-4.068,2.529l-4.291,11.117L5.488,93.457c-1.297-0.103-2.496,0.775-2.764,2.082 c-0.289,1.414,0.623,2.797,2.037,3.086l14.361,2.938c1.356,0.278,2.764-0.35,3.463-1.585l0.979,3.919l-20.707-1.967 c-1.364-0.126-2.615,0.829-2.826,2.201c-0.221,1.425,0.757,2.758,2.181,2.979l25.343,3.908c0.332,0.051,0.694,0.053,1.044-0.007 c1.789-0.3,2.996-1.993,2.695-3.783L31.257,107l-1.844-10.991c0.33-0.035,0.659-0.085,0.988-0.162l13.873-3.242l-0.81,2.615 l-0.093,0.299c-0.301,0.981-0.066,2.093,0.709,2.87l10.082,10.117c0.863,0.859,2.262,0.955,3.229,0.17 c1.035-0.84,1.193-2.357,0.354-3.393L50.028,95.771z"/> <circle cx="88.346" cy="16.913" r="9.986"/> <path d="M117.854,51.888l-0.104-0.402l-0.173-0.61l-0.332-1.093l-0.674-2.117l-1.374-4.172l-2.808-8.298 c-0.256-0.75-0.797-1.413-1.56-1.8l-0.328-0.167l-10.942-5.561c-0.121-0.06-0.25-0.119-0.377-0.169 c-0.48-0.188-0.974-0.276-1.461-0.285c-1.42-0.57-3-0.796-4.625-0.576c-1.008,0.137-1.951,0.44-2.814,0.866 c-0.75,0.128-1.473,0.456-2.084,0.996l-9.145,8.09l-16.814,4.772c-1.359,0.391-2.236,1.763-1.969,3.182 c0.283,1.506,1.732,2.498,3.238,2.214l18.146-3.411c0.401-0.077,0.806-0.244,1.159-0.5l0.272-0.199l2.685-1.95l1.986,14.596 l-13.889-0.493l-0.328-0.012c-1.139-0.032-2.273,0.484-2.988,1.481L59.123,72.234c-0.891,1.252-0.703,3.01,0.486,4.03 c1.26,1.081,3.158,0.937,4.238-0.323l11.35-13.23l17.229,1.861l-3.262,6.531l-0.139,0.276c-0.49,0.999-0.518,2.208,0.031,3.271 l11.526,22.342c0.718,1.381,2.394,2.006,3.849,1.385c1.527-0.65,2.236-2.416,1.586-3.942l-0.008-0.019l-9.018-21.141l8.225-13.836 c0.055-0.092,0.111-0.197,0.16-0.293c0.365-0.734,0.514-1.519,0.475-2.283c0.238-1.043,0.306-2.144,0.152-3.267l-2.062-15.154 l2.385,0.931l2.906,6.438l1.754,3.967l0.846,1.97l0.398,0.961l0.17,0.425l0.039,0.102l0.021,0.051l0.011,0.026l-0.018-0.06 c-0.04-0.162-0.044-0.341-0.011-0.506c-0.05,1.53,1.149,2.811,2.681,2.86c1.531,0.049,2.811-1.151,2.859-2.681 C117.977,52.584,117.934,52.227,117.854,51.888z"/> <polygon points="48.148,72.773 48.17,72.129 41.528,71.943 44.68,68.894 41.709,66.349 46.142,65.22 45.832,61.031 49.424,65.845 51.707,60.529 52.926,66.064 57.445,64.791 56.111,69.801 56.732,69.967 58.356,63.867 53.408,65.262 51.906,58.441 49.271,64.57 45.03,58.881 45.461,64.732 40.351,66.031 43.726,68.924 39.986,72.541 "/> <polygon points="73.418,97.924 69.834,96.227 73.055,98.539 "/> <polygon points="68.098,99.451 68.502,96.963 67.417,99.238 "/> <path d="M73.76,103.838c-0.562-0.146-1.285-0.124-1.803,0.026c-1.086-0.043-2.434-0.217-3.605,0.02l0.308-0.12 c-0.095,0.037-0.199,0.078-0.308,0.121c-0.902,0.183-1.7,0.606-2.192,1.519c0.485,0,0.81,0.485,1.293,0.323 c-0.483,0.323-1.293,0.162-1.776,0.485c-0.646,0.322-0.971,1.131-0.162,1.453c2.746,0.971,6.303,0.809,8.242-1.776 c-0.162,0-0.162-0.162-0.324-0.162c0.484,0,0.809-0.485,1.131-0.808C74.885,104.273,74.076,104.113,73.76,103.838z"/> <path d="M65.239,102.992c-0.136,0.006-0.233-0.125-0.367-0.072c0.132-0.098,0.36-0.062,0.493-0.162 c0.176-0.1,0.255-0.331,0.023-0.41c-0.783-0.232-1.779-0.137-2.287,0.615c0.045-0.002,0.048,0.043,0.094,0.041 c-0.137,0.007-0.221,0.146-0.307,0.242c-0.08,0.187,0.147,0.221,0.24,0.293c0.16,0.033,0.362,0.017,0.506-0.033 C64.174,103.5,64.952,103.596,65.239,102.992z"/> </g> </g> </g>
</svg>