<!DOCTYPE svg PUBLIC "-//W3C//DTD SVG 1.1//EN" "http://www.w3.org/Graphics/SVG/1.1/DTD/svg11.dtd">
<!-- Uploaded to: SVG Repo, www.svgrepo.com, Transformed by: SVG Repo Mixer Tools -->
<svg fill="#ffffff" height="800px" width="800px" version="1.1" id="Capa_1" xmlns="http://www.w3.org/2000/svg" xmlns:xlink="http://www.w3.org/1999/xlink" viewBox="0 0 218.582 218.582" xml:space="preserve" stroke="#ffffff">
<g id="SVGRepo_bgCarrier" stroke-width="0"/>
<g id="SVGRepo_tracerCarrier" stroke-linecap="round" stroke-linejoin="round"/>
<g id="SVGRepo_iconCarrier"> <path d="M160.798,64.543c-1.211-1.869-2.679-3.143-4.046-4.005c-0.007-2.32-0.16-5.601-0.712-9.385 c0.373-4.515,1.676-29.376-13.535-40.585C133.123,3.654,122.676,0,112.294,0c-8.438,0-16.474,2.398-22.629,6.752 c-5.543,3.922-8.596,8.188-10.212,11.191c-4.78,0.169-14.683,2.118-19.063,14.745c-4.144,11.944-0.798,19.323,1.663,22.743 c-0.161,1.978-0.219,3.717-0.223,5.106c-1.367,0.862-2.835,2.136-4.046,4.005c-2.74,4.229-3.206,9.9-1.386,16.859 c3.403,13.012,11.344,15.876,15.581,16.451c2.61,5.218,8.346,15.882,14.086,21.24c2.293,2.14,5.274,3.946,8.86,5.37 c4.577,1.816,9.411,2.737,14.366,2.737s9.789-0.921,14.366-2.737c3.586-1.424,6.567-3.23,8.86-5.37 c5.74-5.358,11.476-16.022,14.086-21.24c4.236-0.575,12.177-3.44,15.581-16.452C164.004,74.443,163.538,68.771,160.798,64.543z M152.509,78.871c-2.074,7.932-5.781,9.116-7.807,9.116c-0.144,0-0.252-0.008-0.316-0.013c-2.314-0.585-4.454,0.631-5.466,2.808 c-1.98,4.256-8.218,16.326-13.226,21.001c-1.377,1.285-3.304,2.425-5.726,3.386c-6.796,2.697-14.559,2.697-21.354,0 c-2.422-0.961-4.349-2.101-5.726-3.386c-5.008-4.675-11.246-16.745-13.226-21.001c-0.842-1.81-2.461-2.953-4.314-2.953 c-0.376,0-0.762,0.047-1.153,0.146c-0.064,0.006-0.172,0.013-0.315,0.013c-2.025,0-5.732-1.185-7.807-9.115 c-1.021-3.903-1.012-7.016,0.024-8.764c0.603-1.016,1.459-1.358,1.739-1.446c2.683-0.291,4.299-2.64,4.075-5.347 c-0.005-0.066-0.18-2.39,0.042-5.927c3.441-1.479,8.939-4.396,13.574-9.402c2.359-2.549,4.085-5.672,5.314-8.537 c3.351,2.736,8.095,5.951,14.372,8.729c10.751,4.758,32.237,7.021,41.307,7.794c0.375,4.317,0.156,7.263,0.15,7.333 c-0.236,2.715,1.383,5.066,4.075,5.357c0.28,0.088,1.136,0.431,1.739,1.446C153.521,71.856,153.53,74.969,152.509,78.871z M184.573,145.65l-43.715-17.485c-1.258-0.502-2.665-0.473-3.903,0.08c-1.236,0.555-2.195,1.588-2.655,2.862l-10.989,30.382 l-2.176-6.256l3.462-8.463c0.63-1.542,0.452-3.297-0.477-4.681c-0.929-1.383-2.485-2.213-4.151-2.213H98.614 c-1.666,0-3.223,0.83-4.151,2.213c-0.929,1.384-1.107,3.139-0.477,4.681l3.462,8.463l-2.176,6.256l-10.989-30.382 c-0.46-1.274-1.419-2.308-2.655-2.862c-1.238-0.554-2.646-0.583-3.903-0.08L34.009,145.65 c-13.424,5.369-22.098,18.182-22.098,32.641v35.291c0,2.762,2.239,5,5,5h184.76c2.761,0,5-2.238,5-5v-35.291 C206.671,163.832,197.997,151.02,184.573,145.65z M183.054,192.718c0,2.762-2.239,5-5,5h-33.57c-2.761,0-5-2.238-5-5v-15.59 c0-2.762,2.239-5,5-5h33.57c2.761,0,5,2.238,5,5V192.718z"/> </g>
</svg>