<!DOCTYPE svg PUBLIC "-//W3C//DTD SVG 1.1//EN" "http://www.w3.org/Graphics/SVG/1.1/DTD/svg11.dtd">
<!-- Uploaded to: SVG Repo, www.svgrepo.com, Transformed by: SVG Repo Mixer Tools -->
<svg fill="#ffffff" version="1.1" id="Designer" xmlns="http://www.w3.org/2000/svg" xmlns:xlink="http://www.w3.org/1999/xlink" width="800px" height="800px" viewBox="0 0 300 300" xml:space="preserve">
<g id="SVGRepo_bgCarrier" stroke-width="0"/>
<g id="SVGRepo_tracerCarrier" stroke-linecap="round" stroke-linejoin="round"/>
<g id="SVGRepo_iconCarrier"> <path d="M9,212L9,212c0,9.4,7.6,17,17,17h12v-34H26C16.6,195,9,202.6,9,212z"/> <path d="M50,283h99V170.1L50,170V283z M62,182h75v89H62V182z"/> <path d="M88.2,227c0-10.3,8.5-18,18.8-18v-12H74v60h33v-12C96.7,245,88.2,237.3,88.2,227z"/> <path d="M193,91.8c20.2,0,36.5-16.3,36.5-36.5S213.2,18.8,193,18.8s-36.5,16.3-36.5,36.5C156.5,75.4,172.9,91.8,193,91.8z"/> <path d="M107,209v36c10.3,0,18.4-7.9,18.4-18.2C125.4,216.7,117.3,209,107,209z"/> <path d="M276,283L276,283c9.4,0,17-7.6,17-17V146c0-25.4-20.6-46-46-46H141c-25.4,0-46,20.6-46,46v11.9h66V283h86V158h12v108 C259,275.4,266.6,283,276,283z"/> </g>
</svg>