<!DOCTYPE svg PUBLIC "-//W3C//DTD SVG 1.1//EN" "http://www.w3.org/Graphics/SVG/1.1/DTD/svg11.dtd">
<!-- Uploaded to: SVG Repo, www.svgrepo.com, Transformed by: SVG Repo Mixer Tools -->
<svg version="1.1" id="_x32_" xmlns="http://www.w3.org/2000/svg" xmlns:xlink="http://www.w3.org/1999/xlink" width="800px" height="800px" viewBox="0 0 512 512" xml:space="preserve" fill="#ffffff">
<g id="SVGRepo_bgCarrier" stroke-width="0"/>
<g id="SVGRepo_tracerCarrier" stroke-linecap="round" stroke-linejoin="round"/>
<g id="SVGRepo_iconCarrier"> <style type="text/css">  .st0{fill:#ffffff;}  </style> <g> <path class="st0" d="M356.391,32.349C351.281,4.567,314.688-10.964,287.5,9.067c-14.25,10.5-27,11.25-33.766,11.25 c-6.75,0-14.25,1.5-33.766-11.25c-28.25-18.484-63.766-4.5-68.875,23.281c-4.156,22.594-27.016,157.594-27.016,157.594h259.328 C383.406,189.942,360.547,54.942,356.391,32.349z"/> <path class="st0" d="M256,235.677H19.641c0,0,41.266,84.047,236.359,84.047s236.359-84.047,236.359-84.047H256z"/> <path class="st0" d="M368.531,436.114c-9.797-8.391-19.734-15.625-28.984-21.688v-5.719h-9.031h-27.578h-14.641h-23.922h-91.531 v17.484h79.891c1.781,1.969,15.75,17.156,36.578,34.547c11.109,9.281,24.172,19.203,38.422,28.063s29.688,16.688,45.656,21.734 l4.656,1.469l26.406-36.891l-2.891-3.938C391.719,457.802,380.219,446.13,368.531,436.114z M288.453,442.255 c-1.797-1.594-3.516-3.141-5.141-4.641c-4.688-4.313-8.703-8.203-11.922-11.422h39.688L288.453,442.255z M296.297,449.052 l32.203-22.859h4.453c1.906,1.25,3.828,2.547,5.781,3.906l-21.203,35.625C309.875,460.161,302.734,454.489,296.297,449.052z M334.828,477.38c-3.063-1.906-6.063-3.859-9.016-5.859l21.125-35.484c4.359,3.266,8.766,6.766,13.109,10.516 c3.563,3.047,7.094,6.266,10.531,9.625L340.5,480.802C338.594,479.692,336.703,478.552,334.828,477.38z M363.219,491.739 l2.219,1.594c-5.203-2.156-10.359-4.594-15.453-7.266l27.672-22.656c1.109,1.188,2.188,2.391,3.266,3.609L363.219,491.739z"/> </g> </g>
</svg>