<!DOCTYPE svg PUBLIC "-//W3C//DTD SVG 1.1//EN" "http://www.w3.org/Graphics/SVG/1.1/DTD/svg11.dtd">
<!-- Uploaded to: SVG Repo, www.svgrepo.com, Transformed by: SVG Repo Mixer Tools -->
<svg width="800px" height="800px" viewBox="0 0 1024 1024" fill="#ffffff" class="icon" version="1.1" xmlns="http://www.w3.org/2000/svg" stroke="#ffffff">
<g id="SVGRepo_bgCarrier" stroke-width="0"/>
<g id="SVGRepo_tracerCarrier" stroke-linecap="round" stroke-linejoin="round"/>
<g id="SVGRepo_iconCarrier">
<path d="M312.026 543.906c-4.422 0-8-3.562-8-8v-53.296c0-31.184 16.576-43.48 45.198-54.182 9.578-3.578 35.026-13.092 55.336-22.792a7.974 7.974 0 0 1 10.67 3.764 8 8 0 0 1-3.764 10.67c-18.778 8.966-41.324 17.624-56.65 23.356-27.308 10.204-34.792 18.624-34.792 39.184v53.296c0 4.438-3.576 8-7.998 8zM695.976 543.906c-4.422 0-8-3.562-8-8v-53.296c0-20.56-7.484-28.98-34.792-39.184-15.324-5.732-37.884-14.404-56.68-23.402a8.004 8.004 0 0 1-3.766-10.67c1.906-4 6.734-5.67 10.672-3.764 18.23 8.732 40.338 17.216 55.368 22.84 28.622 10.702 45.198 22.998 45.198 54.182v53.296a7.988 7.988 0 0 1-8 7.998zM504.484 418.118c-45.198 0-119.984-71.944-119.984-153.934a7.994 7.994 0 0 1 8-7.998 7.994 7.994 0 0 1 7.998 7.998c0 71.132 64.868 137.936 103.986 137.936 39.122 0 103.986-66.804 103.986-137.936a7.994 7.994 0 0 1 8-7.998 7.994 7.994 0 0 1 7.998 7.998c0 81.99-74.786 153.934-119.984 153.934zM392.016 255.952c-0.656 0-1.312-0.078-1.954-0.25a7.972 7.972 0 0 1-6.016-7c-4.234-45.198 5.562-81.222 29.122-107.08 34.23-37.588 89.738-45.478 130.266-45.478 24.184 0 41.292 2.812 42.01 2.938a8.026 8.026 0 0 1 6.624 7 8.026 8.026 0 0 1-4.904 8.294c-6.828 2.796-11.202 6.782-13.388 12.186-2.516 6.234-1.624 13.186-0.516 17.732 8.17 0.328 24.606 2.954 37.12 17.56 15.216 17.794 19.764 47.166 13.514 87.332a8.014 8.014 0 0 1-6.186 6.578 7.992 7.992 0 0 1-8.376-3.376l-28.45-42.666c-12.732 4.608-43.244 14.232-76.396 14.232-33.26 0-64.46-9.686-77.348-14.28l-28.466 42.712a7.984 7.984 0 0 1-6.656 3.566z m191.974-63.992c2.61 0 5.14 1.282 6.654 3.562l19.732 29.606c1.234-23.966-2.888-42.026-12.154-52.87-8.954-10.436-20.684-11.998-26.886-11.998-1.562 0-2.562 0.11-2.766 0.124a8.036 8.036 0 0 1-8.406-4.702c-0.328-0.75-7.936-18.466-1.216-35.104a34.844 34.844 0 0 1 4.326-7.766 292.832 292.832 0 0 0-19.84-0.672c-37.308 0-88.146 6.984-118.438 40.246-16.108 17.684-24.732 41.276-25.794 70.366l18.154-27.23a7.988 7.988 0 0 1 9.686-2.968c0.374 0.156 38.058 15.404 77.442 15.404 39.356 0 76.038-15.216 76.396-15.374a8.106 8.106 0 0 1 3.11-0.624z" ffffffill=""/>
<path d="M616.47 272.184c-4.422 0-8-3.578-8-8v-16.232a7.994 7.994 0 0 1 8-7.998 7.994 7.994 0 0 1 7.998 7.998v16.232c0 4.422-3.578 8-7.998 8zM392.5 272.184c-4.422 0-8-3.578-8-8v-16.232a7.994 7.994 0 0 1 8-7.998 7.994 7.994 0 0 1 7.998 7.998v16.232c0 4.422-3.578 8-7.998 8zM472.254 447.926a7.996 7.996 0 0 1-5.656-2.344l-47.994-47.994a7.996 7.996 0 1 1 11.31-11.31l43.932 43.932 27.076-13.452a8.042 8.042 0 0 1 10.734 3.61 8.02 8.02 0 0 1-3.61 10.732l-32.23 15.998a8.01 8.01 0 0 1-3.562 0.828z" ffffffill=""/>
<path d="M536.23 447.926a8.038 8.038 0 0 1-3.562-0.828l-32.23-15.998a8.022 8.022 0 0 1-3.608-10.732 8.024 8.024 0 0 1 10.732-3.61l27.074 13.452 43.932-43.932a7.996 7.996 0 1 1 11.31 11.31l-47.992 47.994a7.992 7.992 0 0 1-5.656 2.344zM504.86 463.924a7.98 7.98 0 0 1-5.656-2.344l-15.998-15.998a7.996 7.996 0 1 1 11.31-11.31l15.998 15.998a7.996 7.996 0 0 1-5.654 13.654z" ffffffill=""/>
<path d="M504.86 463.924a7.996 7.996 0 0 1-5.656-13.654l16-15.998a7.996 7.996 0 1 1 11.31 11.31l-15.998 15.998a7.968 7.968 0 0 1-5.656 2.344z" ffffffill=""/>
<path d="M488.876 543.906c-0.25 0-0.5 0-0.734-0.032a7.994 7.994 0 0 1-7.248-8.688l7.998-87.98c0.39-4.406 4.656-7.468 8.688-7.25a8 8 0 0 1 7.248 8.686l-7.998 87.98a8.004 8.004 0 0 1-7.954 7.284z" ffffffill=""/>
<path d="M520.842 543.906a8.006 8.006 0 0 1-7.952-7.282l-8-87.98c-0.406-4.39 2.844-8.28 7.25-8.686 4.094-0.25 8.28 2.842 8.686 7.25l8 87.98a7.996 7.996 0 0 1-7.25 8.688c-0.234 0.03-0.484 0.03-0.734 0.03zM1015.934 575.902H8.064a7.984 7.984 0 0 1-7.998-8c0-4.406 3.578-8 7.998-8h1007.87c4.422 0 8 3.594 8 8 0 4.438-3.578 8-8 8z" ffffffill=""/>
<path d="M8.064 639.894a7.984 7.984 0 0 1-7.998-8v-63.992c0-4.406 3.578-8 7.998-8 4.422 0 8 3.594 8 8v63.992c0 4.438-3.578 8-8 8z" ffffffill=""/>
<path d="M1015.934 639.894H8.064a7.984 7.984 0 0 1-7.998-8c0-4.406 3.578-8 7.998-8h1007.87c4.422 0 8 3.594 8 8 0 4.438-3.578 8-8 8z" ffffffill=""/>
<path d="M1015.934 639.894a7.984 7.984 0 0 1-7.998-8v-63.992c0-4.406 3.576-8 7.998-8s8 3.594 8 8v63.992c0 4.438-3.578 8-8 8zM887.952 927.856c-4.422 0-8-3.562-8-7.996V631.894c0-4.406 3.578-8 8-8a8.006 8.006 0 0 1 7.998 8V919.86a7.986 7.986 0 0 1-7.998 7.996zM983.938 927.856a7.984 7.984 0 0 1-7.998-7.996V631.894c0-4.406 3.578-8 7.998-8 4.422 0 8 3.594 8 8V919.86a7.986 7.986 0 0 1-8 7.996zM40.06 927.856a7.984 7.984 0 0 1-7.998-7.996V631.894c0-4.406 3.578-8 7.998-8 4.422 0 8 3.594 8 8V919.86a7.986 7.986 0 0 1-8 7.996zM136.048 927.856c-4.422 0-8-3.562-8-7.996V631.894c0-4.406 3.578-8 8-8a8.006 8.006 0 0 1 7.998 8V919.86a7.984 7.984 0 0 1-7.998 7.996zM823.958 687.886H184.042c-4.42 0-8-3.562-8-8a8.004 8.004 0 0 1 8-7.996h639.916a8.002 8.002 0 0 1 7.998 7.996 7.982 7.982 0 0 1-7.998 8zM823.958 895.86H184.042c-4.42 0-8-3.562-8-7.996 0-4.406 3.578-8 8-8h639.916a8.004 8.004 0 0 1 7.998 8 7.982 7.982 0 0 1-7.998 7.996z" ffffffill=""/>
<path d="M184.042 895.86c-4.42 0-8-3.562-8-7.996V679.886c0-4.402 3.578-7.996 8-7.996s8 3.594 8 7.996v207.976a7.988 7.988 0 0 1-8 7.998zM823.958 895.86a7.982 7.982 0 0 1-7.998-7.996V679.886c0-4.402 3.576-7.996 7.998-7.996s7.998 3.594 7.998 7.996v207.976a7.982 7.982 0 0 1-7.998 7.998zM72.056 927.856c-4.422 0-8-3.562-8-7.996v-111.988a8.002 8.002 0 0 1 16 0v111.988a7.986 7.986 0 0 1-8 7.996zM120.05 751.878c-9.64 0-23.998-6.376-23.998-23.996v-79.988c0-4.406 3.578-8 8-8a8.006 8.006 0 0 1 7.998 8v79.988c0 6.438 4.406 7.906 8.094 8 4.374 0.124 7.904 3.718 7.842 8.09a7.93 7.93 0 0 1-7.936 7.906zM951.942 927.856a7.984 7.984 0 0 1-7.998-7.996v-79.992c0-17.59 14.358-23.996 23.998-23.996a8.006 8.006 0 0 1 7.998 8 7.98 7.98 0 0 1-7.998 7.996c-3.594 0.094-8 1.562-8 8v79.992a7.986 7.986 0 0 1-8 7.996z" ffffffill=""/>
<path d="M296.028 879.864a7.984 7.984 0 0 1-7.998-8c-0.094-3.594-1.562-8-8-8H200.04c-4.42 0-8-3.562-8-7.996 0-4.406 3.578-8 8-8h79.99c17.608 0 23.998 14.372 23.998 23.996a7.988 7.988 0 0 1-8 8zM807.96 719.882H567.992c-17.608 0-23.996-14.34-23.996-23.996 0-4.406 3.578-8 7.998-8a8.004 8.004 0 0 1 7.998 8c0.094 3.594 1.562 8 8 8H807.96c4.422 0 8 3.594 8 7.996 0 4.438-3.578 8-8 8zM919.948 783.876c-4.422 0-8-3.562-8-8v-111.984c0-4.406 3.578-8 8-8a8.006 8.006 0 0 1 7.998 8v111.984c0 4.436-3.578 8-7.998 8zM392.016 783.876H184.042c-4.42 0-8-3.562-8-8a8.002 8.002 0 0 1 8-7.996h207.974a8 8 0 0 1 7.998 7.996c0 4.436-3.578 8-7.998 8zM823.958 815.872h-143.982a7.984 7.984 0 0 1-7.998-8 8 8 0 0 1 7.998-7.996h143.982a8 8 0 0 1 0 15.996z" ffffffill=""/>
<path d="M695.976 431.85c-4.422 0-8-3.578-8-8v-63.914c0-4.422 3.578-8 8-8a7.994 7.994 0 0 1 7.998 8v63.914c0 4.422-3.578 8-7.998 8z" ffffffill=""/>
<path d="M695.976 367.936c-4.422 0-8-3.578-8-7.998 0-44.948-16.342-88.192-46.026-121.782a8.004 8.004 0 0 1 0.704-11.294c3.266-2.906 8.326-2.64 11.294 0.704 32.262 36.51 50.026 83.52 50.026 132.374a7.992 7.992 0 0 1-7.998 7.996z" ffffffill=""/>
<path d="M312.026 431.85c-4.422 0-8-3.578-8-8v-63.914c0-4.422 3.578-8 8-8s8 3.578 8 8v63.914a7.996 7.996 0 0 1-8 8z" ffffffill=""/>
<path d="M312.026 367.936c-4.422 0-8-3.578-8-7.998 0-48.854 17.764-95.864 50.024-132.374a7.996 7.996 0 0 1 11.296-0.704 8.008 8.008 0 0 1 0.704 11.294c-29.684 33.59-46.026 76.834-46.026 121.782 0 4.424-3.576 8-7.998 8z" ffffffill=""/>
<path d="M232.036 543.906H8.064a7.984 7.984 0 0 1-7.998-8v-63.982c0-4.42 3.578-8 7.998-8h223.97c3.234 0 6.14 1.954 7.376 4.936a7.988 7.988 0 0 1-1.704 8.702c-3.812 3.844-13.67 16.03-13.67 26.356 0 10.328 9.858 22.514 13.67 26.362a7.964 7.964 0 0 1 1.704 8.688 7.958 7.958 0 0 1-7.374 4.938zM16.064 527.918h199.708c-4.062-6.672-7.734-15.14-7.734-24 0-8.858 3.672-17.326 7.734-23.996H16.064v47.996z" ffffffill=""/>
<path d="M248.034 479.922h-15.998c-4.42 0-7.998-3.578-7.998-8s3.578-8 7.998-8h15.998c4.422 0 8 3.578 8 8s-3.578 8-8 8z" ffffffill=""/>
<path d="M248.034 543.906h-15.998a7.994 7.994 0 0 1 0-15.988h15.998a7.996 7.996 0 1 1 0 15.988z" ffffffill=""/>
<path d="M200.056 447.926h-159.98c-4.42 0-8-3.578-8-8s3.578-8 8-8c3.594-0.094 8-1.562 8-8s-4.39-7.906-8.078-8a8 8 0 1 1-0.092-15.998H200.062c4.42 0 8 3.578 8 8v31.996a8.008 8.008 0 0 1-8.006 8.002z m-137.124-15.998h129.124v-15.998H62.932c0.734 2.36 1.14 5.016 1.14 8 0.002 2.984-0.406 5.64-1.14 7.998z" ffffffill=""/>
<path d="M999.936 543.906H775.964a7.984 7.984 0 0 1-7.998-8v-159.97c0-4.422 3.576-8 7.998-8h223.97c4.422 0 8 3.578 8 8v159.97a7.982 7.982 0 0 1-7.998 8z m-215.972-15.988h207.972v-143.984H783.964v143.984z" ffffffill=""/>
<path d="M1015.934 543.906H759.966a7.994 7.994 0 0 1 0-15.988h255.966a7.996 7.996 0 1 1 0.002 15.988z" ffffffill=""/>
<path d="M887.952 479.922c-6.422 0-12.452-2.5-16.966-7.032-4.532-4.53-7.032-10.56-7.032-16.966s2.5-12.436 7.032-16.966c9.06-9.062 24.872-9.062 33.934 0 9.342 9.374 9.342 24.59 0 33.932a23.856 23.856 0 0 1-16.968 7.032z m0-31.996c-2.14 0-4.14 0.828-5.656 2.344s-2.344 3.514-2.344 5.656c0 2.14 0.828 4.14 2.344 5.656 3.016 3 8.264 3.032 11.31 0a8.02 8.02 0 0 0 0-11.31 7.92 7.92 0 0 0-5.654-2.346z" ffffffill=""/>
<path d="M899.262 452.614a8 8 0 0 1-5.656-13.656l5.656-5.656a7.996 7.996 0 1 1 11.31 11.31l-5.654 5.656a7.96 7.96 0 0 1-5.656 2.346z" ffffffill=""/>
<path d="M791.962 607.898H248.034a7.984 7.984 0 0 1-7.998-8c0-4.406 3.578-8 7.998-8h543.93c4.422 0 8 3.594 8 8a7.988 7.988 0 0 1-8.002 8z" ffffffill=""/>
</g>
</svg>