<!DOCTYPE svg PUBLIC "-//W3C//DTD SVG 1.1//EN" "http://www.w3.org/Graphics/SVG/1.1/DTD/svg11.dtd">
<!-- Uploaded to: SVG Repo, www.svgrepo.com, Transformed by: SVG Repo Mixer Tools -->
<svg fill="#ffffff" height="800px" width="800px" version="1.1" id="Layer_1" xmlns="http://www.w3.org/2000/svg" xmlns:xlink="http://www.w3.org/1999/xlink" viewBox="0 0 256 173" xml:space="preserve" stroke="#ffffff">
<g id="SVGRepo_bgCarrier" stroke-width="0"/>
<g id="SVGRepo_tracerCarrier" stroke-linecap="round" stroke-linejoin="round"/>
<g id="SVGRepo_iconCarrier"> <path d="M128.3,56.9c15.2,0,27.4-12.2,27.4-27.4S143.5,2,128.3,2c-15.2,0-27.4,12.2-27.4,27.4C100.9,44.7,113.2,56.9,128.3,56.9z M64.6,136.3H15.3c-16,0-16.9-24.4,0.3-24.4h42.7l24.5-36.1C90,66,98.3,61.3,109.9,61.3h36.5c11.7,0,19.9,4.3,27.1,14.6l24.6,36.1 h43c17.2,0,16.2,24.4,0.6,24.4h-49.3c-3.9,0-8.6-1.4-11.4-5.6l-18.8-26.8l-0.1,67.2H94.8l-0.1-67.2l-18.8,26.8 C73.2,134.9,68.5,136.3,64.6,136.3z M4,43.2c-2.1,2.6-6.8,15.1,13.2,35.6c21,21.6,34.6,16.9,36.9,14.5L40.1,79.3 c-2,2-4.5,0.2-9.4-3.7c-3.2-2.6-6.9-6.1-10.1-10.1c-2.2-2.8-4.2-5.7-2.2-7.8L4,43.2z M59.2,88.3c0.9-0.9,0.8-2.3,0-3.1v0 c0,0-11-11-11-11c-0.9-0.9-2.3-0.9-3.1,0l-4,4l14.1,14.1C55.3,92.3,59.2,88.3,59.2,88.3L59.2,88.3z M23.5,52.6 c0.9-0.9,0.8-2.3,0-3.1v0c0,0-11.3-11.3-11.3-11.3c-0.9-0.9-2.3-0.9-3.1,0l-4,4l14.4,14.4C19.5,56.6,23.5,52.6,23.5,52.6L23.5,52.6z M254,40.2v52.6c0,1.5-1.2,2.7-2.7,2.7h-42.6v-8.2h-4.1c-0.8,0-1.4-0.6-1.4-1.4s0.6-1.4,1.4-1.4h4.1h4.1c0.8,0,1.4-0.6,1.4-1.4 s-0.6-1.4-1.4-1.4h-4.1v-6.6h-4.1c-0.8,0-1.4-0.6-1.4-1.4s0.6-1.4,1.4-1.4h4.1h4.1c0.8,0,1.4-0.6,1.4-1.4s-0.6-1.4-1.4-1.4h-4.1 v-6.8h-4.1c-0.8,0-1.4-0.6-1.4-1.4s0.6-1.4,1.4-1.4h4.1h4.1c0.8,0,1.4-0.6,1.4-1.4s-0.6-1.4-1.4-1.4h-4.1v-6.6h-4.1 c-0.8,0-1.4-0.6-1.4-1.4s0.6-1.4,1.4-1.4h4.1h4.1c0.8,0,1.4-0.6,1.4-1.4s-0.6-1.4-1.4-1.4h-4.1v-8.2h42.6 C252.8,37.5,254,38.7,254,40.2z M226.8,59.7c0,2.9,2.3,5.2,5.2,5.2s5.2-2.3,5.2-5.2s-2.3-5.2-5.2-5.2S226.8,56.8,226.8,59.7z M241.1,71.2c0-2.7-2.2-4.9-4.9-4.9h-8.6c-2.7,0-4.9,2.2-4.9,4.9v6.2h18.4V71.2z"/> </g>
</svg>