<!DOCTYPE svg PUBLIC "-//W3C//DTD SVG 1.1//EN" "http://www.w3.org/Graphics/SVG/1.1/DTD/svg11.dtd">
<!-- Uploaded to: SVG Repo, www.svgrepo.com, Transformed by: SVG Repo Mixer Tools -->
<svg fill="#ffffff" width="800px" height="800px" viewBox="0 0 50 50" xmlns="http://www.w3.org/2000/svg" xmlns:xlink="http://www.w3.org/1999/xlink">
<g id="SVGRepo_bgCarrier" stroke-width="0"/>
<g id="SVGRepo_tracerCarrier" stroke-linecap="round" stroke-linejoin="round"/>
<g id="SVGRepo_iconCarrier">
<path d="M10 3L10 13L20 13L20 3L10 3 z M 33 13L33 27L1 27C0.447 27 0 27.448 0 28L0 34C0 36.206 1.794 38 4 38L8.0898438 38C8.5678437 40.833 11.032 43 14 43C16.968 43 19.431156 40.833 19.910156 38L33 38C33.48 40.832 36.031 43 39 43C41.969 43 44.43025 40.832 44.90625 38L47 38C48.57 38 50 36.57 50 35L50 25.375C50 23.363 48.551 21.3085 48.375 21.0625L44.21875 15.5C43.26575 14.352 41.77 13 40 13L33 13 z M 4 15L4 25L14 25L14 15L4 15 z M 16 15L16 25L26 25L26 15L16 15 z M 38 18L43.59375 18L46.78125 22.25C47.12025 22.73 48 24.203 48 25.375L48 26L38 26C37 26 36 25 36 24L36 20C36 18.895 37 18 38 18 z M 14 33C16.206 33 18 34.794 18 37C18 39.206 16.206 41 14 41C11.794 41 10 39.206 10 37C10 34.794 11.794 33 14 33 z M 39 33C41.207 33 43 34.793 43 37C43 39.207 41.207 41 39 41C36.793 41 35 39.207 35 37C35 34.793 36.793 33 39 33 z"/>
</g>
</svg>