<!DOCTYPE svg PUBLIC "-//W3C//DTD SVG 1.1//EN" "http://www.w3.org/Graphics/SVG/1.1/DTD/svg11.dtd">
<!-- Uploaded to: SVG Repo, www.svgrepo.com, Transformed by: SVG Repo Mixer Tools -->
<svg version="1.1" id="_x32_" xmlns="http://www.w3.org/2000/svg" xmlns:xlink="http://www.w3.org/1999/xlink" width="800px" height="800px" viewBox="0 0 512 512" xml:space="preserve" fill="#ffffff" stroke="#ffffff">
<g id="SVGRepo_bgCarrier" stroke-width="0"/>
<g id="SVGRepo_tracerCarrier" stroke-linecap="round" stroke-linejoin="round"/>
<g id="SVGRepo_iconCarrier"> <style type="text/css">  .st0{fill:#ffffff;}  </style> <g> <path class="st0" d="M34.313,250.891c2.297-5.016,6.688-13.281,14.438-27.813c3.531-6.672,7.5-14.047,11.563-21.625H24.719 C11.063,201.453,0,212.516,0,226.188c0,13.641,11.063,24.703,24.719,24.703H34.313z"/> <path class="st0" d="M487.281,201.453h-35.594c4.078,7.578,8.031,14.953,11.563,21.625c7.75,14.531,12.125,22.797,14.438,27.813 h9.594c13.656,0,24.719-11.063,24.719-24.703C512,212.516,500.938,201.453,487.281,201.453z"/> <path class="st0" d="M39.391,465.188c0,18.406,14.938,33.328,33.328,33.328c18.406,0,33.313-14.922,33.313-33.328v-31.516H39.391 V465.188z"/> <path class="st0" d="M405.938,465.188c0,18.406,14.938,33.328,33.344,33.328s33.328-14.922,33.328-33.328v-31.516h-66.672V465.188z "/> <path class="st0" d="M467.875,257.109c1.688,0.484-61.688-115.828-64.719-122.109c-8-16.672-27.781-26.703-47.063-26.703 c-22.281,0-84.344,0-84.344,0s-93.563,0-115.859,0c-19.297,0-39.031,10.031-47.047,26.703 c-3.031,6.281-66.391,122.594-64.719,122.109c0,0-20.5,20.438-22.063,22.063c-8.625,9.281-8,17.297-8,25.313c0,0,0,75.297,0,92.563 c0,17.281,3.063,26.734,23.438,26.734h437c20.375,0,23.469-9.453,23.469-26.734c0-17.266,0-92.563,0-92.563 c0-8.016,0.594-16.031-8.063-25.313C488.406,277.547,467.875,257.109,467.875,257.109z M96.563,221.422 c0,0,40.703-73.313,43.094-78.109c4.125-8.203,15.844-14.141,27.828-14.141h177.031c12,0,23.703,5.938,27.828,14.141 c2.406,4.797,43.109,78.109,43.109,78.109c3.75,6.75,0.438,19.313-10.672,19.313H107.219 C96.109,240.734,92.813,228.172,96.563,221.422z M91.125,384.469c-20.656,0-37.406-16.734-37.406-37.391 c0-20.672,16.75-37.406,37.406-37.406s37.391,16.734,37.391,37.406C128.516,367.734,111.781,384.469,91.125,384.469z M312.781,394.578c0,2.734-2.219,4.953-4.938,4.953H204.172c-2.734,0-4.953-2.219-4.953-4.953v-45.672 c0-2.703,2.219-4.906,4.953-4.906h103.672c2.719,0,4.938,2.203,4.938,4.906V394.578z M420.875,384.469 c-20.656,0-37.422-16.734-37.422-37.391c0-20.672,16.766-37.406,37.422-37.406s37.406,16.75,37.406,37.406 S441.531,384.469,420.875,384.469z"/> <path class="st0" d="M152.906,49.25c0.016-10.047,8.172-18.203,18.219-18.219h169.75c10.031,0.016,18.188,8.172,18.203,18.219 v49.172h17.547V49.25c0-19.75-16-35.75-35.75-35.766h-169.75c-19.75,0.016-35.75,16.016-35.766,35.766v49.172h17.547V49.25z"/> <path class="st0" d="M195.141,92.938h8.891c0.438,0,0.719-0.266,0.719-0.672V56.328c0-0.281,0.156-0.422,0.406-0.422h12.063 c0.406,0,0.719-0.266,0.719-0.672v-7.469c0-0.406-0.313-0.688-0.719-0.688h-35.25c-0.438,0-0.719,0.281-0.719,0.688v7.469 c0,0.406,0.281,0.672,0.719,0.672h12.047c0.281,0,0.422,0.141,0.422,0.422v35.938C194.438,92.672,194.719,92.938,195.141,92.938z"/> <path class="st0" d="M237.438,47.078c-0.5,0-0.781,0.281-0.922,0.688l-16.391,44.5c-0.156,0.406,0,0.672,0.469,0.672h9.203 c0.484,0,0.766-0.203,0.906-0.672l2.672-8.031h16.688l2.719,8.031c0.156,0.469,0.438,0.672,0.938,0.672h9.094 c0.5,0,0.625-0.266,0.5-0.672l-16.125-44.5c-0.156-0.406-0.406-0.688-0.922-0.688H237.438z M247.25,75.813h-11l5.406-16.047h0.203 L247.25,75.813z"/> <path class="st0" d="M269.844,92.938h9.688c0.625,0,0.906-0.203,1.188-0.672l8.531-13.969h0.219l8.5,13.969 c0.281,0.469,0.531,0.672,1.188,0.672h9.734c0.516,0,0.641-0.406,0.453-0.813l-14.313-22.859l13.297-21.375 c0.234-0.406,0.078-0.813-0.406-0.813h-9.734c-0.563,0-0.844,0.203-1.141,0.688l-7.578,12.391h-0.219l-7.563-12.391 c-0.266-0.484-0.547-0.688-1.125-0.688h-9.75c-0.469,0-0.625,0.406-0.406,0.813l13.266,21.375l-14.234,22.859 C269.156,92.531,269.359,92.938,269.844,92.938z"/> <path class="st0" d="M320.422,47.766v44.5c0,0.406,0.281,0.672,0.688,0.672h8.922c0.406,0,0.688-0.266,0.688-0.672v-44.5 c0-0.406-0.281-0.688-0.688-0.688h-8.922C320.703,47.078,320.422,47.359,320.422,47.766z"/> </g> </g>
</svg>