<svg xmlns="http://www.w3.org/2000/svg" xmlns:xlink="http://www.w3.org/1999/xlink" xml:space="preserve" version="1.1" style="shape-rendering:geometricPrecision;text-rendering:geometricPrecision;image-rendering:optimizeQuality;" viewBox="0 0 333.33 416.66249999999997" x="0px" y="0px" fill-rule="evenodd" clip-rule="evenodd"><defs><style type="text/css">
   
    .fil0 {fill:black}
   
  </style></defs><g><path class="fil0" d="M14.62 273.6c0,0 59.7,0 68.57,0 8.87,0 10.39,-6.87 12.07,-17.87 1.68,-11 23.03,-69.31 26.22,-74.88 3.36,-5.87 14.79,2.15 24.49,2.15 9.87,0 30.3,0 37.68,0 9.87,0 22.53,-9.47 22.53,-18.87 0,-9.39 0,-9.15 0,-15.28 0,-6.13 4.94,-10.11 14.17,-10.11 9.23,0 71.35,0 81.61,0 10.27,0 13.02,-7.16 13.02,-13.17 0,-6.01 0,-26.09 0,-26.09l14.22 0 0 -27.11 -261.07 0 -14.22 -12.67 -8.22 0 -5.35 24.39 -13.57 0 0 24.88c0,0 -12.46,9.5 -7.78,15.42 4.68,5.92 20.92,-0.57 26.08,9.36 5.16,9.94 3.73,33.34 -13.47,61.42 -17.19,28.09 -27.51,40.89 -27.51,59.8 0,18.91 2.53,18.77 10.5,18.63zm132.09 -139.49c-0.66,20.24 10.54,29.73 14.26,27.11 2.62,-1.85 -0.05,-13.35 1.99,-22.09 0.47,-2.03 2.2,-3.81 3.91,-5.33l10.48 0c24.44,0 24.44,36.96 0,36.96l-26.95 0c-23.14,0 -24.37,-33.12 -3.69,-36.65z"/></g><text x="0" y="348.33" fill="#000000" font-size="5px" font-weight="bold" font-family="'Helvetica Neue', Helvetica, Arial-Unicode, Arial, Sans-serif">Created by jauhari</text><text x="0" y="353.33" fill="#000000" font-size="5px" font-weight="bold" font-family="'Helvetica Neue', Helvetica, Arial-Unicode, Arial, Sans-serif">from the Noun Project</text></svg>