<svg xmlns="http://www.w3.org/2000/svg" viewBox="0 0 512 512"><path fill="#fff" d="M440 67c-135 15-285 34-415 61l41 278c84-17 175-33 266-45a404 404 0 0 0-5-20c-81 13-163 27-237 44l-9 2-35-234-1-8 8-2c117-28 247-47 362-56h8l43 236-9 1a4251 4251 0 0 0-37 4 515 515 0 0 0 5 21l62-7zm-31 39c-110 9-232 27-343 52l30 207c68-15 142-28 216-39-9-9-13-21-14-33-1-14 7-25 17-33a90 90 0 0 1 59-20 80 80 0 0 1 10 0c12 2 25 8 32 20 8 16 8 34 3 51a4203 4203 0 0 1 26-4zm-236 65 3 18-74 11-3-18zm113 41 3 18-176 30-3-18zm-40 43 3 17-130 22-3-17zm125 3-19 2c-8 3-18 7-25 13-8 6-11 13-11 19 1 11 5 19 13 25 8 7 22 11 43 12 12 0 22-8 28-20 6-13 6-29 0-41-3-5-10-8-19-10a59 59 0 0 0-7 0 71 71 0 0 0-3 0zm32 77c-8 7-19 12-31 12-10 0-18-1-26-3 12 48 16 99 19 146 13-8 23-20 29-36l5-14 10 11c12 12 25 19 40 24-15-44-34-92-46-140z"/></svg>