<svg style="height: 512px; width: 512px;" xmlns="http://www.w3.org/2000/svg" viewBox="0 0 512 512"><defs><filter id="shadow-7" height="300%" width="300%" x="-100%" y="-100%"><feFlood flood-color="rgba(255, 255, 255, 0)" result="flood"></feFlood><feComposite in="flood" in2="SourceGraphic" operator="atop" result="composite"></feComposite><feGaussianBlur in="composite" stdDeviation="15" result="blur"></feGaussianBlur><feOffset dx="0" dy="0" result="offset"></feOffset><feComposite in="SourceGraphic" in2="offset" operator="over"></feComposite></filter></defs><g class="" style="" transform="translate(0,0)"><path d="M326.953 22.87L306.68 83.685l20.273 20.273-115.428 115.427c-16.39-8-34.277-14.452-51.84-18.502-14.247-3.285-28.136-4.902-40.802-4.772-16.84.173-31.505 3.44-41.975 9.973l229.006 229.006c11.447-18.345 12.853-49.592 5.2-82.776-4.05-17.564-10.502-35.45-18.5-51.84l115.427-115.43 20.274 20.274 60.817-20.273L326.954 22.87zM159.207 313.84L22.87 489.13l175.29-136.337-38.953-38.953z" fill="#d0021b" fill-opacity="1" stroke="#000000" stroke-opacity="1" stroke-width="8" transform="translate(512, 0) scale(-1, 1) rotate(-450, 256, 256) skewX(0) skewY(0)"></path></g></svg>