<svg xmlns="http://www.w3.org/2000/svg" viewBox="0 0 512 512"><path fill="#fff" d="M139 34 29 113l96 29 111-87-97-21zm113 31-118 90 51 131 8-7 5-16a18 13 77 0 1-10-20 18 13 77 0 1 11-14 18 13 77 0 1 4 1 18 13 77 0 1 3 1l8-29a9 9 0 0 1 1-1 9 9 0 0 1 0-1 9 9 0 0 1 0-1 9 9 0 0 1 1-1 9 9 0 0 1 1-1 9 9 0 0 1 1 0 9 9 0 0 1 0-1 9 9 0 0 1 1 0 9 9 0 0 1 1 0 9 9 0 0 1 0-1 9 9 0 0 1 1 0 9 9 0 0 1 1 0l34-3a18 13 77 0 1 10-10 18 13 77 0 1 4 1 18 13 77 0 1 8 7l13-1-39-124zm-115 8a10 20 78 0 1 13 9 10 20 78 0 1-22 12 10 20 78 0 1-16-9 10 20 78 0 1 21-12 10 20 78 0 1 4 0zm100 24a18 13 77 0 1 4 0 18 13 77 0 1 12 22 18 13 77 0 1-14 13 18 13 77 0 1-13-22 18 13 77 0 1 11-13zM24 131l47 114 94 40-46-125-95-29zm148 17a18 13 77 0 1 4 1 18 13 77 0 1 12 22 18 13 77 0 1-15 13 18 13 77 0 1-12-22 18 13 77 0 1 11-14zm-75 13a19 9 59 0 1 17 15 19 9 59 0 1 0 20 19 9 59 0 1-18-15 19 9 59 0 1 0-20 19 9 59 0 1 1 0zm263 40-112 10 114 80 114-17-116-73zM71 211a19 9 59 0 1 17 15 19 9 59 0 1-1 20 19 9 59 0 1-18-15 19 9 59 0 1 1-20 19 9 59 0 1 1 0zm157 8-41 154 115 99 47-168-121-85zm127 11a22 9 15 0 1 20 5 22 9 15 0 1 7 14 22 9 15 0 1-28-3 22 9 15 0 1-8-14 22 9 15 0 1 9-2zm133 60-121 18-47 168 116-32 52-154zm-182 11a16 26-6 0 1 4 1 16 26-6 0 1 13 32 16 26-6 0 1-18 18 16 26-6 0 1-13-32 16 26-6 0 1 14-19zm154 12a13 22 29 0 1 8 4 13 22 29 0 1-6 28 13 22 29 0 1-22 4 13 22 29 0 1 6-28 13 22 29 0 1 14-8zm-69 10a13 22 29 0 1 8 5 13 22 29 0 1-6 28 13 22 29 0 1-21 4 13 22 29 0 1 6-29 13 22 29 0 1 13-8zm-174 14a16 26-6 0 1 5 1 16 26-6 0 1 12 31 16 26-6 0 1-18 18 16 26-6 0 1-13-31 16 26-6 0 1 14-19zm213 61a13 22 29 0 1 7 4 13 22 29 0 1-6 28 13 22 29 0 1-21 4 13 22 29 0 1 6-28 13 22 29 0 1 14-8zm-71 19a13 22 29 0 1 8 4 13 22 29 0 1-6 29 13 22 29 0 1-21 4 13 22 29 0 1 6-29 13 22 29 0 1 13-8z"/></svg>